<?xml version="1.0" encoding="utf-8"?>
<!-- Generator: Adobe Illustrator 26.0.1, SVG Export Plug-In . SVG Version: 6.00 Build 0)  -->
<svg version="1.1" id="Layer_1" xmlns="http://www.w3.org/2000/svg" xmlns:xlink="http://www.w3.org/1999/xlink" x="0px" y="0px"
	 viewBox="0 0 274.4 578.5" style="enable-background:new 0 0 274.4 578.5;" xml:space="preserve">
<style type="text/css">
	.st0{fill:#921A21;}
</style>
<path id="XMLID_00000044881023529947592800000008539366984998978728_" class="st0" d="M78.6,533.4c-46.2-106.2-39.5-209.8,4.9-314.8
	c-2.3-3.2-5.2-7.7-8.5-11.9C38,160.5,35.1,118,66,67.3c13.9-22.8,31.9-42,53.9-57.2c5.8-4,12.4-7.8,19.2-9.4
	C150.4-2,155.7,3.2,153.1,15c-40.2,14.4-82.3,72.1-83.6,114.3c-0.7,25.6,11.2,45.7,28.9,65.1c4.7-4.3,8.5-8.1,12.6-11.3
	c20.8-16.1,41-33,62.8-47.4c10.3-6.8,23.5-10.2,35.9-12.8c22.1-4.7,41.3,0.9,54.5,20.7c13.3,20,13.5,46.3,0.2,65.6
	c-10.2,14.9-24,25.6-40.9,32.2C193.5,253,163,254.6,132,245c-6.1-1.9-12.2-3.7-18-5.5C65.9,302,69.4,468.3,107.9,522
	c10.8-22.2,5.3-49.7,23.4-67.8c11.1,0.8,11.9,8.1,11.1,15.6c-3.3,30.2-6.4,60.4-10.6,90.5c-2.5,17.4-10.8,21.9-26.8,15.3
	c-29.6-12.2-59.4-23.5-91.6-27.1C8.6,548,4.4,541.5,0,537.7c4.1-4.1,8-11.6,12.4-11.8c14.9-0.8,30,0.4,45,1.9
	C64.3,528.5,71,531.3,78.6,533.4z M127.1,212.2c32.5,20.4,84.5,15.3,107.7-9.2c3.7-3.9,6.9-8.8,9-13.8c4.3-10.3,1.9-20.1-4.4-29.2
	c-6.7-9.8-16.4-9.2-25.7-6.8C178,162.5,151.2,184.7,127.1,212.2z"/>
</svg>
