<svg xmlns="http://www.w3.org/2000/svg" width="24" height="24" viewBox="0 0 24 24" fill="currentColor"><path d="M12 0C5.373 0 0 5.373 0 12s5.373 12 12 12 12-5.373 12-12S18.627 0 12 0zm4.93 16.485c-.37.37-.795.57-1.24.57-.19 0-.385-.035-.575-.11-1.24-.49-2.41-1.16-3.46-1.995-1.01-.81-1.88-1.79-2.59-2.91-.68-1.08-1.21-2.25-1.565-3.48-.16-.565-.01-1.17.39-1.57l.63-.63c.44-.44 1.09-.44 1.53 0l1.48 1.48c.44.44.44 1.09 0 1.53l-.39.39c-.1.1-.12.255-.055.38.32.625.74 1.21 1.24 1.725.505.505 1.085.925 1.71 1.245.125.065.285.04.385-.06l.39-.39c.44-.44 1.09-.44 1.53 0l1.48 1.48c.44.435.44 1.085.07 1.345z"/></svg>
